<svg width="74" height="28" viewBox="0 0 74 28" fill="none" xmlns="http://www.w3.org/2000/svg">
<path d="M25.6048 10.7088C25.5315 10.4929 25.3965 10.3031 25.2166 10.1629C25.0366 10.0228 24.8196 9.93838 24.5922 9.92018L17.941 9.39168L15.0628 3.02052C14.9712 2.81531 14.8221 2.64103 14.6336 2.51868C14.445 2.39634 14.2251 2.33118 14.0004 2.33105C13.7756 2.33093 13.5557 2.39585 13.367 2.51799C13.1783 2.64012 13.0291 2.81425 12.9372 3.01935L10.059 9.39168L3.40784 9.92018C3.18437 9.93789 2.97074 10.0196 2.79249 10.1555C2.61424 10.2915 2.47894 10.4759 2.40275 10.6867C2.32657 10.8975 2.31274 11.1259 2.36291 11.3443C2.41309 11.5628 2.52514 11.7622 2.68568 11.9187L7.60084 16.7102L5.86251 24.2375C5.80973 24.4654 5.82664 24.7038 5.91107 24.9219C5.99549 25.14 6.14352 25.3278 6.33595 25.4607C6.52837 25.5936 6.75632 25.6657 6.99019 25.6674C7.22407 25.6692 7.45308 25.6007 7.64751 25.4707L14 21.2357L20.3525 25.4707C20.5512 25.6026 20.7856 25.6706 21.0241 25.6653C21.2626 25.6601 21.4937 25.582 21.6865 25.4414C21.8792 25.3009 22.0243 25.1047 22.1022 24.8793C22.1802 24.6538 22.1872 24.4099 22.1223 24.1803L19.9885 16.7137L25.2805 11.9514C25.627 11.6387 25.7542 11.151 25.6048 10.7088Z" fill="#F59E0B"/>
<path d="M51 22V18.74H45.66L44.46 16.46L51.5 7.94H53.78V16.28H56.12V18.74H53.78V22H51ZM47.78 16.28H51V12.32L47.78 16.28ZM59.3111 22.22C58.8178 22.22 58.4311 22.08 58.1511 21.8C57.8711 21.5067 57.7311 21.0933 57.7311 20.56C57.7311 20.0667 57.8778 19.6667 58.1711 19.36C58.4644 19.04 58.8444 18.88 59.3111 18.88C59.8178 18.88 60.2044 19.0267 60.4711 19.32C60.7511 19.6133 60.8911 20.0267 60.8911 20.56C60.8911 21.04 60.7444 21.44 60.4511 21.76C60.1711 22.0667 59.7911 22.22 59.3111 22.22ZM67.2134 22.2C66.1468 22.2 65.2134 21.9667 64.4134 21.5C63.6134 21.0333 62.8801 20.24 62.2134 19.12L64.3334 17.76C64.7868 18.48 65.2601 18.9933 65.7534 19.3C66.2601 19.6067 66.7934 19.76 67.3534 19.76C67.9668 19.76 68.5001 19.5467 68.9534 19.12C69.4201 18.6933 69.6534 18.14 69.6534 17.46C69.6534 16.7667 69.4534 16.24 69.0534 15.88C68.6668 15.5067 68.1268 15.32 67.4334 15.32C66.8201 15.32 66.0668 15.5133 65.1734 15.9L64.4934 14.1L67.7934 10.48L63.1134 10.44V7.94H71.4734L71.9934 8.98L68.2734 13.02C69.0201 13.0867 69.7001 13.32 70.3134 13.72C70.9401 14.1067 71.4334 14.62 71.7934 15.26C72.1534 15.9 72.3334 16.6133 72.3334 17.4C72.3334 18.32 72.1068 19.14 71.6534 19.86C71.2001 20.58 70.5868 21.1533 69.8134 21.58C69.0401 21.9933 68.1734 22.2 67.2134 22.2Z" fill="#3C4563"/>
</svg>
