<svg width="74" height="28" viewBox="0 0 74 28" fill="none" xmlns="http://www.w3.org/2000/svg">
<path d="M25.6048 10.7088C25.5315 10.4929 25.3965 10.3031 25.2166 10.1629C25.0366 10.0228 24.8196 9.93838 24.5922 9.92018L17.941 9.39168L15.0628 3.02052C14.9712 2.81531 14.8221 2.64103 14.6336 2.51868C14.445 2.39634 14.2251 2.33118 14.0004 2.33105C13.7756 2.33093 13.5557 2.39585 13.367 2.51799C13.1783 2.64012 13.0291 2.81425 12.9372 3.01935L10.059 9.39168L3.40784 9.92018C3.18437 9.93789 2.97074 10.0196 2.79249 10.1555C2.61424 10.2915 2.47894 10.4759 2.40275 10.6867C2.32657 10.8975 2.31274 11.1259 2.36291 11.3443C2.41309 11.5628 2.52514 11.7622 2.68568 11.9187L7.60084 16.7102L5.86251 24.2375C5.80973 24.4654 5.82664 24.7038 5.91107 24.9219C5.99549 25.14 6.14352 25.3278 6.33595 25.4607C6.52837 25.5936 6.75632 25.6657 6.99019 25.6674C7.22407 25.6692 7.45308 25.6007 7.64751 25.4707L14 21.2357L20.3525 25.4707C20.5512 25.6026 20.7856 25.6706 21.0241 25.6653C21.2626 25.6601 21.4937 25.582 21.6865 25.4414C21.8792 25.3009 22.0243 25.1047 22.1022 24.8793C22.1802 24.6538 22.1872 24.4099 22.1223 24.1803L19.9885 16.7137L25.2805 11.9514C25.627 11.6387 25.7542 11.151 25.6048 10.7088Z" fill="#F59E0B"/>
<path d="M51 22V18.74H45.66L44.46 16.46L51.5 7.94H53.78V16.28H56.12V18.74H53.78V22H51ZM47.78 16.28H51V12.32L47.78 16.28ZM59.3111 22.22C58.8178 22.22 58.4311 22.08 58.1511 21.8C57.8711 21.5067 57.7311 21.0933 57.7311 20.56C57.7311 20.0667 57.8778 19.6667 58.1711 19.36C58.4644 19.04 58.8444 18.88 59.3111 18.88C59.8178 18.88 60.2044 19.0267 60.4711 19.32C60.7511 19.6133 60.8911 20.0267 60.8911 20.56C60.8911 21.04 60.7444 21.44 60.4511 21.76C60.1711 22.0667 59.7911 22.22 59.3111 22.22ZM67.5534 22C66.6068 22 65.7534 21.78 64.9934 21.34C64.2334 20.9 63.6268 20.3 63.1734 19.54C62.7334 18.78 62.5134 17.9267 62.5134 16.98C62.5134 16.1267 62.7134 15.2133 63.1134 14.24C63.5134 13.2533 64.0734 12.1667 64.7934 10.98L66.6934 7.78H69.3934L69.4734 7.98L66.9734 12.02C66.8534 12.2067 66.7468 12.3867 66.6534 12.56C67.1734 12.3333 67.7068 12.22 68.2534 12.22C69.0268 12.22 69.7401 12.4333 70.3934 12.86C71.0601 13.2733 71.5868 13.8267 71.9734 14.52C72.3734 15.2133 72.5734 15.9733 72.5734 16.8C72.5734 17.7867 72.3534 18.6733 71.9134 19.46C71.4868 20.2467 70.8934 20.8667 70.1334 21.32C69.3868 21.7733 68.5268 22 67.5534 22ZM67.5934 19.54C68.2734 19.54 68.8401 19.3067 69.2934 18.84C69.7468 18.36 69.9734 17.7467 69.9734 17C69.9734 16.5733 69.8668 16.1733 69.6534 15.8C69.4401 15.4267 69.1534 15.1267 68.7934 14.9C68.4468 14.6733 68.0534 14.56 67.6134 14.56C66.8934 14.56 66.3001 14.8 65.8334 15.28C65.3668 15.7467 65.1334 16.32 65.1334 17C65.1334 17.72 65.3601 18.3267 65.8134 18.82C66.2801 19.3 66.8734 19.54 67.5934 19.54Z" fill="#3C4563"/>
</svg>
